<svg width="180" height="181" viewBox="0 0 180 181" fill="none" xmlns="http://www.w3.org/2000/svg" aria-label="Camfit">
<rect width="180" height="180" transform="translate(0 0.5)" fill="#61D377"/>
<path d="M89.9989 147.56C85.0369 147.56 80.998 143.521 80.998 138.559V125.727C80.998 120.765 85.0369 116.727 89.9989 116.727C94.9608 116.727 98.9997 120.765 98.9997 125.727V138.559C98.9997 143.521 94.9608 147.56 89.9989 147.56Z" fill="white"/>
<path d="M38.9949 147.56C37.1717 147.56 35.3484 147.006 33.756 145.875C29.7171 142.991 28.794 137.359 31.6789 133.32L100.547 37.1964C103.431 33.1576 109.063 32.2344 113.102 35.1193C117.14 38.0042 118.064 43.6354 115.179 47.6743L46.3109 143.798C44.5569 146.245 41.7875 147.56 38.9949 147.56Z" fill="white"/>
<path d="M141.006 147.56C138.213 147.56 135.444 146.245 133.69 143.798L64.8449 47.6743C61.96 43.6354 62.8832 38.0042 66.922 35.1193C70.9608 32.2344 76.5921 33.1576 79.477 37.1964L148.322 133.32C151.206 137.359 150.283 142.991 146.244 145.875C144.652 147.006 142.829 147.56 141.006 147.56Z" fill="white"/>
</svg>
